HIERARCHY
ROOT hip
{
  OFFSET 0 0 0
  CHANNELS 6 Xposition Yposition Zposition Zrotation Yrotation Xrotation
  JOINT abdomen
  {
    OFFSET 0 20.6881 -0.73152
    CHANNELS 3 Zrotation Xrotation Yrotation
    JOINT chest
    {
      OFFSET 0 11.7043 -0.48768
      CHANNELS 3 Zrotation Xrotation Yrotation
      JOINT neck
      {
        OFFSET 0 22.1894 -2.19456
        CHANNELS 3 Zrotation Xrotation Yrotation
        JOINT head
        {
          OFFSET -0.24384 7.07133 1.2192
          CHANNELS 3 Zrotation Xrotation Yrotation
          JOINT leftEye
          {
            OFFSET 4.14528 8.04674 8.04672
            CHANNELS 3 Zrotation Xrotation Yrotation
            End Site
            {
              OFFSET 1 0 0
            }
          }
          JOINT rightEye
          {
            OFFSET -3.6576 8.04674 8.04672
            CHANNELS 3 Zrotation Xrotation Yrotation
            End Site
            {
              OFFSET 1 0 0
            }
          }
        }
      }
      JOINT rCollar
      {
        OFFSET -2.68224 19.2634 -4.8768
        CHANNELS 3 Zrotation Xrotation Yrotation
        JOINT rShldr
        {
          OFFSET -8.77824 -1.95073 1.46304
          CHANNELS 3 Zrotation Xrotation Yrotation
          JOINT rForeArm
          {
            OFFSET -28.1742 -1.7115 0.48768
            CHANNELS 3 Zrotation Xrotation Yrotation
            JOINT rHand
            {
              OFFSET -22.5879 0.773209 7.07136
              CHANNELS 3 Zrotation Xrotation Yrotation
              JOINT rThumb1
              {
                OFFSET -1.2192 -0.487915 3.41376
                CHANNELS 3 Zrotation Xrotation Yrotation
                JOINT rThumb2
                {
                  OFFSET -3.37035 -0.52449 3.41376
                  CHANNELS 3 Zrotation Xrotation Yrotation
                  End Site
                  {
                    OFFSET -1.78271 -1.18214 1.43049
                  }
                }
              }
              JOINT rIndex1
              {
                OFFSET -7.75947 0.938293 5.60832
                CHANNELS 3 Zrotation Xrotation Yrotation
                JOINT rIndex2
                {
                  OFFSET -2.54057 -0.884171 1.56538
                  CHANNELS 3 Zrotation Xrotation Yrotation
                  End Site
                  {
                    OFFSET -1.62519 -0.234802 1.16502
                  }
                }
              }
              JOINT rMid1
              {
                OFFSET -8.24714 1.18213 3.41376
                CHANNELS 3 Zrotation Xrotation Yrotation
                JOINT rMid2
                {
                  OFFSET -3.10165 -0.590103 1.0647
                  CHANNELS 3 Zrotation Xrotation Yrotation
                  End Site
                  {
                    OFFSET -2.48547 -0.328903 0.83742
                  }
                }
              }
              JOINT rRing1
              {
                OFFSET -8.82822 0.546677 1.51678
                CHANNELS 3 Zrotation Xrotation Yrotation
                JOINT rRing2
                {
                  OFFSET -2.60934 -0.819778 -0.0198488
                  CHANNELS 3 Zrotation Xrotation Yrotation
                  End Site
                  {
                    OFFSET -2.33842 -0.294052 0.168128
                  }
                }
              }
              JOINT rPinky1
              {
                OFFSET -8.27202 -0.0477905 -0.4584
                CHANNELS 3 Zrotation Xrotation Yrotation
                JOINT rPinky2
                {
                  OFFSET -1.82734 -0.647385 -0.700984
                  CHANNELS 3 Zrotation Xrotation Yrotation
                  End Site
                  {
                    OFFSET -1.69225 -0.51767 -0.607171
                  }
                }
              }
            }
          }
        }
      }
      JOINT lCollar
      {
        OFFSET 2.68224 19.2634 -4.8768
        CHANNELS 3 Zrotation Xrotation Yrotation
        JOINT lShldr
        {
          OFFSET 8.77824 -1.95073 1.46304
          CHANNELS 3 Zrotation Xrotation Yrotation
          JOINT lForeArm
          {
            OFFSET 28.1742 -1.7115 0.48768
            CHANNELS 3 Zrotation Xrotation Yrotation
            JOINT lHand
            {
              OFFSET 22.5879 0.773209 7.07136
              CHANNELS 3 Zrotation Xrotation Yrotation
              JOINT lThumb1
              {
                OFFSET 1.2192 -0.487915 3.41376
                CHANNELS 3 Zrotation Xrotation Yrotation
                JOINT lThumb2
                {
                  OFFSET 3.37035 -0.52449 3.41376
                  CHANNELS 3 Zrotation Xrotation Yrotation
                  End Site
                  {
                    OFFSET 1.78271 -1.18214 1.43049
                  }
                }
              }
              JOINT lIndex1
              {
                OFFSET 7.75947 0.938293 5.60832
                CHANNELS 3 Zrotation Xrotation Yrotation
                JOINT lIndex2
                {
                  OFFSET 2.54057 -0.884171 1.56538
                  CHANNELS 3 Zrotation Xrotation Yrotation
                  End Site
                  {
                    OFFSET 1.62519 -0.234802 1.16502
                  }
                }
              }
              JOINT lMid1
              {
                OFFSET 8.24714 1.18213 3.41376
                CHANNELS 3 Zrotation Xrotation Yrotation
                JOINT lMid2
                {
                  OFFSET 3.10165 -0.590103 1.0647
                  CHANNELS 3 Zrotation Xrotation Yrotation
                  End Site
                  {
                    OFFSET 2.48547 -0.328903 0.83742
                  }
                }
              }
              JOINT lRing1
              {
                OFFSET 8.82822 0.546677 1.51678
                CHANNELS 3 Zrotation Xrotation Yrotation
                JOINT lRing2
                {
                  OFFSET 2.60934 -0.819778 -0.0198488
                  CHANNELS 3 Zrotation Xrotation Yrotation
                  End Site
                  {
                    OFFSET 2.33842 -0.294052 0.168128
                  }
                }
              }
              JOINT lPinky1
              {
                OFFSET 8.27202 -0.0477905 -0.4584
                CHANNELS 3 Zrotation Xrotation Yrotation
                JOINT lPinky2
                {
                  OFFSET 1.82734 -0.647385 -0.700984
                  CHANNELS 3 Zrotation Xrotation Yrotation
                  End Site
                  {
                    OFFSET 1.69225 -0.51767 -0.607171
                  }
                }
              }
            }
          }
        }
      }
    }
  }
  JOINT rButtock
  {
    OFFSET -8.77824 4.35084 1.2192
    CHANNELS 3 Zrotation Xrotation Yrotation
    JOINT rThigh
    {
      OFFSET 0 -1.70687 -2.19456
      CHANNELS 3 Zrotation Xrotation Yrotation
      JOINT rShin
      {
        OFFSET 0 -36.8199 0.73152
        CHANNELS 3 Zrotation Xrotation Yrotation
        JOINT rFoot
        {
          OFFSET 0.73152 -45.1104 -5.12064
          CHANNELS 3 Zrotation Xrotation Yrotation
          End Site
          {
            OFFSET -1.1221 -3.69964 12.103
          }
        }
      }
    }
  }
  JOINT lButtock
  {
    OFFSET 8.77824 4.35084 1.2192
    CHANNELS 3 Zrotation Xrotation Yrotation
    JOINT lThigh
    {
      OFFSET 0 -1.70687 -2.19456
      CHANNELS 3 Zrotation Xrotation Yrotation
      JOINT lShin
      {
        OFFSET 0 -36.8199 0.73152
        CHANNELS 3 Zrotation Xrotation Yrotation
        JOINT lFoot
        {
          OFFSET -0.73152 -45.1104 -5.12064
          CHANNELS 3 Zrotation Xrotation Yrotation
          End Site
          {
            OFFSET 1.1221 -3.69964 12.103
          }
        }
      }
    }
  }
}
MOTION
Frames:	8
Frame Time:	0.00833333
21.9921 85.3585 -48.4302 0.0 0.0 0.0 1.3292 -0.0038867 0.0364487 0.36678 -0.00191718 0.0635313 -3.79657e-14 0.0 1.49089e-16 -1.13916e-13 3.18055e-15 4.93856e-16 -0.0 0.0 0.0 -0.0 0.0 0.0 -1.90356e-14 -4.27076e-18 1.98785e-16 -3.96913e-13 -5.09386e-16 1.39149e-15 -6.87343e-12 2.04708e-12 1.11319e-13 -7.85792e-11 -2.07422e-12 2.19458e-13 -1.85382e-10 -5.46697e-14 7.41069e-13 -3.20162e-10 -8.90555e-14 1.26984e-12 -1.85376e-10 -5.20816e-14 7.25166e-13 7.73091 5.47488 0.417314 -1.85381e-10 -5.46658e-14 7.37889e-13 2.90554 0.965183 0.102902 -1.85377e-10 -5.45664e-14 7.38684e-13 10.2786 0.731801 0.0259123 -1.85395e-10 -5.1684e-14 7.4743e-13 2.22167 -0.733487 -0.20892 -1.91323e-14 -6.60027e-18 -9.93923e-17 -4.00844e-13 -1.92573e-16 -3.97569e-16 -6.86334e-12 -2.05861e-12 7.95139e-14 -7.86154e-11 2.04408e-12 2.54444e-13 -1.85426e-10 -2.97939e-14 7.41069e-13 -3.20205e-10 -4.45278e-14 1.28812e-12 -1.85433e-10 -2.66371e-14 7.50611e-13 -7.73091 5.47488 -0.417314 -1.85425e-10 -2.96189e-14 7.4425e-13 -2.90554 0.965183 -0.102902 -1.8543e-10 -2.98177e-14 7.40274e-13 -10.2786 0.731801 -0.0259123 -1.85419e-10 -2.66371e-14 7.34708e-13 -2.22167 -0.733487 0.20892 -2.03217e-16 0.0 -3.88251e-19 1.49197 -6.14547 -0.136494 0.00172014 5.57278 0.053599 -0.49754 0.56988 0.0681599 2.03217e-16 0.0 3.88251e-19 0.528595 -1.9215 0.00828354 0.00907884 -2.07858 0.0748735 0.479231 3.99716 -0.135441
21.2655 84.1228 -51.4728 175.903 28.8151 -165.937 -0.100834 -3.86507 -1.00102 1.85948 -0.345582 -0.111441 0.928698 3.24867 1.85194 -3.0195 -4.90461 3.31461 -0.0 0.0 0.0 -0.0 0.0 0.0 -1.3087e-14 1.99235e-13 -9.17923e-14 20.4046 13.3228 -5.59418 -6.96253 -4.00381 9.80829 0.0142899 -2.65233 -0.371319 2.16771e-10 2.20856e-10 -2.27851e-10 3.7431e-10 3.80957e-10 -3.93494e-10 2.16775e-10 2.20865e-10 -2.27865e-10 7.73091 5.47488 0.417314 2.16771e-10 2.20856e-10 -2.27854e-10 2.90554 0.965183 0.102902 2.16775e-10 2.20856e-10 -2.27853e-10 10.2786 0.731801 0.0259123 2.16759e-10 2.20858e-10 -2.27845e-10 2.22167 -0.733487 -0.20892 -1.32109e-14 1.99233e-13 -9.2061e-14 -18.3573 11.3686 2.0178 15.9139 -13.244 -14.7571 -0.0165508 -2.85547 0.399513 9.4819e-11 -3.58897e-09 -1.03035e-09 1.73705e-10 -6.19705e-09 -1.77776e-09 9.48123e-11 -3.58897e-09 -1.03035e-09 -7.73091 5.47488 -0.417314 9.48195e-11 -3.58897e-09 -1.03035e-09 -2.90554 0.965183 -0.102902 9.48144e-11 -3.58897e-09 -1.03035e-09 -10.2786 0.731801 -0.0259123 9.48269e-11 -3.58897e-09 -1.03036e-09 -2.22167 -0.733487 0.20892 -2.03217e-16 0.0 -3.88251e-19 -0.958724 -16.6732 2.75659 -0.0233017 8.75689 0.0027991 -1.09009 -2.44115 -7.32019 2.03217e-16 0.0 3.88251e-19 -1.33704 -5.86261 -0.213908 0.0295096 3.78634 0.0151481 0.513377 -1.86198 0.49826
21.5968 84.1538 -52.082 175.831 28.9744 -166.054 -1.76341 -7.93827 -2.1084 3.43065 -0.707463 -0.295206 1.67249 6.67565 3.82983 -5.5773 -10.043 6.90146 -0.0 0.0 0.0 -0.0 0.0 0.0 -8.76275e-15 4.10141e-13 -1.93675e-13 45.0961 26.9675 -12.5894 -12.8507 -7.84374 20.3249 -0.00815103 -5.45953 -0.767028 6.41201e-10 4.58976e-10 -4.65275e-10 1.10718e-09 7.91761e-10 -8.03469e-10 6.41203e-10 4.58991e-10 -4.65285e-10 7.73091 5.47488 0.417314 6.41201e-10 4.58976e-10 -4.65277e-10 2.90554 0.965183 0.102902 6.41206e-10 4.58976e-10 -4.65277e-10 10.2786 0.731801 0.0259123 6.41191e-10 4.58978e-10 -4.65269e-10 2.22167 -0.733487 -0.20892 -8.91723e-15 4.10138e-13 -1.93911e-13 -38.6978 23.3263 4.42902 25.0605 -24.2078 -32.7108 0.00949787 -5.88291 0.826471 3.97477e-10 -7.37298e-09 -2.11306e-09 7.06881e-10 -1.27306e-08 -3.64576e-09 3.97471e-10 -7.37298e-09 -2.11305e-09 -7.73091 5.47488 -0.417314 3.97478e-10 -7.37298e-09 -2.11305e-09 -2.90554 0.965183 -0.102902 3.97472e-10 -7.37298e-09 -2.11305e-09 -10.2786 0.731801 -0.0259123 3.97487e-10 -7.37298e-09 -2.11306e-09 -2.22167 -0.733487 0.20892 -2.03217e-16 0.0 -3.88251e-19 -2.22734 -27.7337 6.32119 -0.0440981 12.2507 -0.0494331 -2.56779 -5.43402 -15.2552 2.03217e-16 0.0 3.88251e-19 -3.33924 -10.0603 -0.448215 0.0638335 10.0092 -0.051359 0.689167 -8.06592 1.16958
21.9048 84.1461 -52.6372 175.69 29.1007 -165.932 -3.38751 -11.5723 -3.13286 4.83858 -1.03288 -0.461455 2.14939 9.70499 5.62769 -7.3181 -14.5137 10.2374 -0.0 0.0 0.0 -0.0 0.0 0.0 -1.18976e-15 5.97714e-13 -2.75775e-13 70.6789 38.2297 -20.9727 -16.9183 -10.6047 29.9138 -0.0611109 -7.95564 -1.12358 1.02108e-09 6.62677e-10 -6.85036e-10 1.76325e-09 1.14305e-09 -1.18302e-09 1.02108e-09 6.62698e-10 -6.85044e-10 7.73091 5.47488 0.417314 1.02108e-09 6.62678e-10 -6.85037e-10 2.90554 0.965183 0.102902 1.02108e-09 6.62677e-10 -6.85038e-10 10.2786 0.731801 0.0259123 1.02107e-09 6.62678e-10 -6.8503e-10 2.22167 -0.733487 -0.20892 -1.36811e-15 5.97712e-13 -2.75984e-13 -57.8863 33.9185 7.15737 27.3753 -28.6615 -51.0984 0.0709492 -8.56473 1.21055 6.55309e-10 -1.07668e-08 -3.09254e-09 1.16153e-09 -1.85911e-08 -5.33584e-09 6.55302e-10 -1.07669e-08 -3.09254e-09 -7.73091 5.47488 -0.417314 6.55309e-10 -1.07669e-08 -3.09254e-09 -2.90554 0.965183 -0.102902 6.55303e-10 -1.07669e-08 -3.09254e-09 -10.2786 0.731801 -0.0259123 6.5532e-10 -1.07669e-08 -3.09254e-09 -2.22167 -0.733487 0.20892 -2.03217e-16 0.0 -3.88251e-19 -1.95937 -37.3315 10.3249 -0.0558827 15.1251 -0.101923 -4.55999 -7.89425 -22.2994 2.03217e-16 0.0 3.88251e-19 -5.16239 -13.744 -0.674231 0.107761 15.5162 -0.108248 0.978078 -13.5739 1.81493
22.2094 84.1431 -53.1776 175.52 29.0256 -165.76 -4.61598 -14.1226 -3.89668 5.84273 -1.26717 -0.583853 2.41227 11.7794 6.90663 -8.26531 -17.5068 12.6638 -0.0 0.0 0.0 -0.0 0.0 0.0 1.45051e-14 7.26955e-13 -3.08414e-13 91.2302 45.1585 -28.8335 -19.1767 -12.0103 36.7169 -0.116206 -9.67529 -1.37298 1.28956e-09 7.80332e-10 -8.60642e-10 2.22735e-09 1.34555e-09 -1.48651e-09 1.28956e-09 7.80355e-10 -8.60649e-10 7.73091 5.47488 0.417314 1.28956e-09 7.80333e-10 -8.60642e-10 2.90554 0.965183 0.102902 1.28957e-09 7.80332e-10 -8.60643e-10 10.2786 0.731801 0.0259123 1.28955e-09 7.80333e-10 -8.60636e-10 2.22167 -0.733487 -0.20892 1.43197e-14 7.26954e-13 -3.08613e-13 -72.1152 41.268 9.66958 27.42 -27.8581 -63.8387 0.134104 -10.3841 1.47574 8.01074e-10 -1.31854e-08 -3.81399e-09 1.41985e-09 -2.27687e-08 -6.58115e-09 8.01068e-10 -1.31854e-08 -3.81399e-09 -7.73091 5.47488 -0.417314 8.01074e-10 -1.31854e-08 -3.81399e-09 -2.90554 0.965183 -0.102902 8.01067e-10 -1.31854e-08 -3.81399e-09 -10.2786 0.731801 -0.0259123 8.01085e-10 -1.31854e-08 -3.81399e-09 -2.22167 -0.733487 0.20892 -2.03217e-16 0.0 -3.88251e-19 -0.89146 -43.6527 13.7685 -0.0577002 16.451 -0.152236 -6.25572 -9.58126 -26.9249 2.03217e-16 0.0 3.88251e-19 -6.47284 -16.1432 -0.865317 0.146145 19.2333 -0.135686 1.27549 -17.3483 2.3425
22.5352 84.1136 -53.7026 175.319 28.8653 -165.679 -5.16446 -15.1724 -4.24996 6.28688 -1.37592 -0.642391 2.59736 12.5419 7.41035 -8.70172 -18.5589 13.6149 -0.0 0.0 0.0 -0.0 0.0 0.0 4.77126e-14 7.969e-13 -2.69649e-13 99.994 47.5782 -32.4466 -19.9525 -12.4262 39.4067 -0.140527 -10.2985 -1.46436 1.44481e-09 7.95868e-10 -1.016e-09 2.49661e-09 1.37115e-09 -1.75545e-09 1.44481e-09 7.95887e-10 -1.01601e-09 7.73091 5.47488 0.417314 1.44481e-09 7.95869e-10 -1.016e-09 2.90554 0.965183 0.102902 1.44482e-09 7.95869e-10 -1.016e-09 10.2786 0.731801 0.0259123 1.4448e-09 7.95869e-10 -1.01599e-09 2.22167 -0.733487 -0.20892 4.75457e-14 7.96902e-13 -2.69859e-13 -78.0196 44.2404 10.9127 27.4848 -26.7188 -68.5607 0.160761 -11.0046 1.56737 8.14456e-10 -1.45168e-08 -4.25683e-09 1.4464e-09 -2.5071e-08 -7.34626e-09 8.14451e-10 -1.45168e-08 -4.25683e-09 -7.73091 5.47488 -0.417314 8.14456e-10 -1.45168e-08 -4.25683e-09 -2.90554 0.965183 -0.102902 8.1445e-10 -1.45168e-08 -4.25683e-09 -10.2786 0.731801 -0.0259123 8.14467e-10 -1.45168e-08 -4.25684e-09 -2.22167 -0.733487 0.20892 -2.03217e-16 0.0 -3.88251e-19 -0.745751 -45.6482 14.9652 -0.0520095 15.4052 -0.200943 -6.82842 -10.6202 -27.8737 2.03217e-16 0.0 3.88251e-19 -7.06103 -16.7385 -0.993539 0.16372 20.4181 -0.113927 1.47483 -18.6906 2.71481
22.8683 84.0915 -54.22 175.191 28.7863 -165.591 -5.19081 -15.1533 -4.29817 6.33136 -1.39493 -0.655414 2.77412 12.3755 7.34659 -8.90839 -18.2651 13.4571 -0.0 0.0 0.0 -0.0 0.0 0.0 9.31367e-14 8.23425e-13 -1.79984e-13 98.931 47.3372 -31.8837 -19.8752 -12.3912 39.1229 -0.135272 -10.1394 -1.4411 1.51714e-09 7.3759e-10 -1.15492e-09 2.62319e-09 1.2689e-09 -1.99628e-09 1.51714e-09 7.376e-10 -1.15493e-09 7.73091 5.47488 0.417314 1.51714e-09 7.3759e-10 -1.15492e-09 2.90554 0.965183 0.102902 1.51715e-09 7.3759e-10 -1.15492e-09 10.2786 0.731801 0.0259123 1.51713e-09 7.37591e-10 -1.15491e-09 2.22167 -0.733487 -0.20892 9.30064e-14 8.23431e-13 -1.8022e-13 -77.5176 44.146 10.8779 27.5093 -27.0177 -68.3317 0.152866 -10.7688 1.53278 7.32112e-10 -1.50584e-08 -4.49674e-09 1.30535e-09 -2.60107e-08 -7.7616e-09 7.32108e-10 -1.50584e-08 -4.49674e-09 -7.73091 5.47488 -0.417314 7.32113e-10 -1.50584e-08 -4.49674e-09 -2.90554 0.965183 -0.102902 7.32107e-10 -1.50584e-08 -4.49674e-09 -10.2786 0.731801 -0.0259123 7.32123e-10 -1.50584e-08 -4.49674e-09 -2.22167 -0.733487 0.20892 -2.03217e-16 0.0 -3.88251e-19 -1.78161 -44.6539 14.1292 -0.0458748 12.6751 -0.247379 -6.42361 -11.3051 -26.1693 2.03217e-16 0.0 3.88251e-19 -7.12196 -16.0459 -1.07367 0.165534 19.7955 -0.0566794 1.56288 -18.2981 2.95722
23.1993 84.1438 -54.7746 175.05 28.8631 -165.513 -4.98493 -14.6964 -4.23487 6.21068 -1.37478 -0.654104 2.92078 11.8418 7.0569 -8.98625 -17.4484 12.8647 -0.0 0.0 0.0 -0.0 0.0 0.0 1.3362e-13 7.96794e-13 -7.34171e-14 93.954 46.0099 -29.6721 -19.4583 -12.1776 37.6526 -0.119064 -9.68367 -1.3745 1.48797e-09 6.2043e-10 -1.22075e-09 2.57438e-09 1.06526e-09 -2.11078e-09 1.48797e-09 6.20432e-10 -1.22076e-09 7.73091 5.47488 0.417314 1.48797e-09 6.2043e-10 -1.22074e-09 2.90554 0.965183 0.102902 1.48798e-09 6.2043e-10 -1.22075e-09 10.2786 0.731801 0.0259123 1.48797e-09 6.20432e-10 -1.22074e-09 2.22167 -0.733487 -0.20892 1.3353e-13 7.96804e-13 -7.36858e-14 -74.4643 42.8186 10.3314 27.5261 -27.9242 -66.1056 0.131745 -10.1785 1.44624 5.7226e-10 -1.48387e-08 -4.52323e-09 1.02832e-09 -2.56367e-08 -7.80901e-09 5.72258e-10 -1.48387e-08 -4.52322e-09 -7.73091 5.47488 -0.417314 5.72261e-10 -1.48387e-08 -4.52323e-09 -2.90554 0.965183 -0.102902 5.72256e-10 -1.48387e-08 -4.52323e-09 -10.2786 0.731801 -0.0259123 5.7227e-10 -1.48387e-08 -4.52323e-09 -2.22167 -0.733487 0.20892 -2.03217e-16 0.0 -3.88251e-19 -3.05003 -42.5503 12.6183 -0.0437197 9.59732 -0.287247 -5.6643 -11.7716 -23.678 2.03217e-16 0.0 3.88251e-19 -6.92545 -14.8477 -1.14041 0.163443 18.4922 0.00813592 1.56031 -17.2279 3.05727
